ISO-10303-21;
HEADER;
/* Generated by software containing ST-Developer
 * from STEP Tools, Inc. (www.steptools.com) 
 */

FILE_DESCRIPTION(
/* description */ (''),
/* implementation_level */ '2;1');

FILE_NAME(
/* name */ 'rock.step',
/* time_stamp */ '2025-06-23T09:29:26+01:00',
/* author */ (''),
/* organization */ (''),
/* preprocessor_version */ 'ST-DEVELOPER v20.1',
/* originating_system */ 'Autodesk Translation Framework v14.10.0.0',
/* authorisation */ '');

FILE_SCHEMA (('AUTOMOTIVE_DESIGN { 1 0 10303 214 3 1 1 }'));
ENDSEC;

DATA;
#10=MECHANICAL_DESIGN_GEOMETRIC_PRESENTATION_REPRESENTATION('',(#17),#1204);
#11=ITEM_DEFINED_TRANSFORMATION($,$,#764,#804);
#12=(
REPRESENTATION_RELATIONSHIP($,$,#1215,#1214)
REPRESENTATION_RELATIONSHIP_WITH_TRANSFORMATION(#11)
SHAPE_REPRESENTATION_RELATIONSHIP()
);
#13=CONTEXT_DEPENDENT_SHAPE_REPRESENTATION(#12,#1213);
#14=NEXT_ASSEMBLY_USAGE_OCCURRENCE('Component1:1','Component1:1',
'Component1:1',#1217,#1218,'Component1:1');
#15=SHAPE_REPRESENTATION_RELATIONSHIP('SRR','None',#1215,#16);
#16=ADVANCED_BREP_SHAPE_REPRESENTATION('',(#18),#1203);
#17=STYLED_ITEM('',(#1228),#18);
#18=MANIFOLD_SOLID_BREP('Body1',#750);
#19=FACE_BOUND('',#64,.T.);
#20=FACE_BOUND('',#91,.T.);
#21=FACE_OUTER_BOUND('',#60,.T.);
#22=FACE_OUTER_BOUND('',#61,.T.);
#23=FACE_OUTER_BOUND('',#62,.T.);
#24=FACE_OUTER_BOUND('',#63,.T.);
#25=FACE_OUTER_BOUND('',#65,.T.);
#26=FACE_OUTER_BOUND('',#66,.T.);
#27=FACE_OUTER_BOUND('',#67,.T.);
#28=FACE_OUTER_BOUND('',#68,.T.);
#29=FACE_OUTER_BOUND('',#69,.T.);
#30=FACE_OUTER_BOUND('',#70,.T.);
#31=FACE_OUTER_BOUND('',#71,.T.);
#32=FACE_OUTER_BOUND('',#72,.T.);
#33=FACE_OUTER_BOUND('',#73,.T.);
#34=FACE_OUTER_BOUND('',#74,.T.);
#35=FACE_OUTER_BOUND('',#75,.T.);
#36=FACE_OUTER_BOUND('',#76,.T.);
#37=FACE_OUTER_BOUND('',#77,.T.);
#38=FACE_OUTER_BOUND('',#78,.T.);
#39=FACE_OUTER_BOUND('',#79,.T.);
#40=FACE_OUTER_BOUND('',#80,.T.);
#41=FACE_OUTER_BOUND('',#81,.T.);
#42=FACE_OUTER_BOUND('',#82,.T.);
#43=FACE_OUTER_BOUND('',#83,.T.);
#44=FACE_OUTER_BOUND('',#84,.T.);
#45=FACE_OUTER_BOUND('',#85,.T.);
#46=FACE_OUTER_BOUND('',#86,.T.);
#47=FACE_OUTER_BOUND('',#87,.T.);
#48=FACE_OUTER_BOUND('',#88,.T.);
#49=FACE_OUTER_BOUND('',#89,.T.);
#50=FACE_OUTER_BOUND('',#90,.T.);
#51=FACE_OUTER_BOUND('',#92,.T.);
#52=FACE_OUTER_BOUND('',#93,.T.);
#53=FACE_OUTER_BOUND('',#94,.T.);
#54=FACE_OUTER_BOUND('',#95,.T.);
#55=FACE_OUTER_BOUND('',#96,.T.);
#56=FACE_OUTER_BOUND('',#97,.T.);
#57=FACE_OUTER_BOUND('',#98,.T.);
#58=FACE_OUTER_BOUND('',#99,.T.);
#59=FACE_OUTER_BOUND('',#100,.T.);
#60=EDGE_LOOP('',(#470,#471,#472,#473,#474,#475,#476));
#61=EDGE_LOOP('',(#477,#478,#479,#480,#481,#482,#483,#484,#485));
#62=EDGE_LOOP('',(#486,#487,#488,#489,#490));
#63=EDGE_LOOP('',(#491,#492,#493,#494,#495,#496));
#64=EDGE_LOOP('',(#497,#498,#499,#500));
#65=EDGE_LOOP('',(#501,#502,#503,#504,#505,#506));
#66=EDGE_LOOP('',(#507,#508,#509));
#67=EDGE_LOOP('',(#510,#511,#512,#513));
#68=EDGE_LOOP('',(#514,#515,#516));
#69=EDGE_LOOP('',(#517,#518,#519));
#70=EDGE_LOOP('',(#520,#521,#522,#523,#524,#525,#526,#527,#528,#529,#530,
#531,#532,#533,#534));
#71=EDGE_LOOP('',(#535,#536,#537,#538,#539));
#72=EDGE_LOOP('',(#540,#541,#542,#543,#544));
#73=EDGE_LOOP('',(#545,#546,#547,#548));
#74=EDGE_LOOP('',(#549,#550,#551));
#75=EDGE_LOOP('',(#552,#553,#554,#555));
#76=EDGE_LOOP('',(#556,#557,#558,#559,#560,#561,#562));
#77=EDGE_LOOP('',(#563,#564,#565,#566,#567,#568));
#78=EDGE_LOOP('',(#569,#570,#571,#572));
#79=EDGE_LOOP('',(#573,#574,#575,#576));
#80=EDGE_LOOP('',(#577,#578,#579,#580));
#81=EDGE_LOOP('',(#581,#582,#583,#584,#585,#586,#587,#588,#589,#590));
#82=EDGE_LOOP('',(#591,#592,#593,#594));
#83=EDGE_LOOP('',(#595,#596,#597,#598,#599,#600));
#84=EDGE_LOOP('',(#601,#602,#603,#604,#605,#606));
#85=EDGE_LOOP('',(#607,#608,#609,#610,#611));
#86=EDGE_LOOP('',(#612,#613,#614,#615));
#87=EDGE_LOOP('',(#616,#617,#618,#619));
#88=EDGE_LOOP('',(#620,#621,#622,#623));
#89=EDGE_LOOP('',(#624,#625,#626,#627));
#90=EDGE_LOOP('',(#628,#629,#630,#631));
#91=EDGE_LOOP('',(#632,#633,#634));
#92=EDGE_LOOP('',(#635,#636,#637));
#93=EDGE_LOOP('',(#638,#639,#640,#641));
#94=EDGE_LOOP('',(#642,#643,#644,#645));
#95=EDGE_LOOP('',(#646,#647,#648,#649));
#96=EDGE_LOOP('',(#650,#651,#652));
#97=EDGE_LOOP('',(#653,#654,#655,#656,#657,#658,#659,#660));
#98=EDGE_LOOP('',(#661,#662,#663));
#99=EDGE_LOOP('',(#664,#665,#666,#667));
#100=EDGE_LOOP('',(#668,#669,#670,#671));
#101=LINE('',#995,#202);
#102=LINE('',#997,#203);
#103=LINE('',#999,#204);
#104=LINE('',#1001,#205);
#105=LINE('',#1003,#206);
#106=LINE('',#1005,#207);
#107=LINE('',#1006,#208);
#108=LINE('',#1009,#209);
#109=LINE('',#1011,#210);
#110=LINE('',#1013,#211);
#111=LINE('',#1015,#212);
#112=LINE('',#1017,#213);
#113=LINE('',#1019,#214);
#114=LINE('',#1021,#215);
#115=LINE('',#1022,#216);
#116=LINE('',#1025,#217);
#117=LINE('',#1027,#218);
#118=LINE('',#1029,#219);
#119=LINE('',#1030,#220);
#120=LINE('',#1033,#221);
#121=LINE('',#1035,#222);
#122=LINE('',#1037,#223);
#123=LINE('',#1038,#224);
#124=LINE('',#1041,#225);
#125=LINE('',#1043,#226);
#126=LINE('',#1045,#227);
#127=LINE('',#1046,#228);
#128=LINE('',#1049,#229);
#129=LINE('',#1051,#230);
#130=LINE('',#1052,#231);
#131=LINE('',#1056,#232);
#132=LINE('',#1058,#233);
#133=LINE('',#1059,#234);
#134=LINE('',#1062,#235);
#135=LINE('',#1063,#236);
#136=LINE('',#1066,#237);
#137=LINE('',#1067,#238);
#138=LINE('',#1069,#239);
#139=LINE('',#1073,#240);
#140=LINE('',#1075,#241);
#141=LINE('',#1076,#242);
#142=LINE('',#1078,#243);
#143=LINE('',#1080,#244);
#144=LINE('',#1082,#245);
#145=LINE('',#1084,#246);
#146=LINE('',#1086,#247);
#147=LINE('',#1088,#248);
#148=LINE('',#1090,#249);
#149=LINE('',#1092,#250);
#150=LINE('',#1094,#251);
#151=LINE('',#1096,#252);
#152=LINE('',#1097,#253);
#153=LINE('',#1099,#254);
#154=LINE('',#1100,#255);
#155=LINE('',#1103,#256);
#156=LINE('',#1104,#257);
#157=LINE('',#1106,#258);
#158=LINE('',#1107,#259);
#159=LINE('',#1109,#260);
#160=LINE('',#1114,#261);
#161=LINE('',#1116,#262);
#162=LINE('',#1118,#263);
#163=LINE('',#1119,#264);
#164=LINE('',#1121,#265);
#165=LINE('',#1122,#266);
#166=LINE('',#1125,#267);
#167=LINE('',#1127,#268);
#168=LINE('',#1129,#269);
#169=LINE('',#1131,#270);
#170=LINE('',#1132,#271);
#171=LINE('',#1135,#272);
#172=LINE('',#1136,#273);
#173=LINE('',#1141,#274);
#174=LINE('',#1142,#275);
#175=LINE('',#1143,#276);
#176=LINE('',#1146,#277);
#177=LINE('',#1147,#278);
#178=LINE('',#1148,#279);
#179=LINE('',#1149,#280);
#180=LINE('',#1153,#281);
#181=LINE('',#1155,#282);
#182=LINE('',#1157,#283);
#183=LINE('',#1158,#284);
#184=LINE('',#1160,#285);
#185=LINE('',#1161,#286);
#186=LINE('',#1163,#287);
#187=LINE('',#1164,#288);
#188=LINE('',#1166,#289);
#189=LINE('',#1170,#290);
#190=LINE('',#1172,#291);
#191=LINE('',#1174,#292);
#192=LINE('',#1175,#293);
#193=LINE('',#1177,#294);
#194=LINE('',#1178,#295);
#195=LINE('',#1180,#296);
#196=LINE('',#1182,#297);
#197=LINE('',#1184,#298);
#198=LINE('',#1186,#299);
#199=LINE('',#1188,#300);
#200=LINE('',#1191,#301);
#201=LINE('',#1196,#302);
#202=VECTOR('',#811,10.);
#203=VECTOR('',#812,10.);
#204=VECTOR('',#813,10.);
#205=VECTOR('',#814,10.);
#206=VECTOR('',#815,10.);
#207=VECTOR('',#816,10.);
#208=VECTOR('',#817,10.);
#209=VECTOR('',#820,10.);
#210=VECTOR('',#821,10.);
#211=VECTOR('',#822,10.);
#212=VECTOR('',#823,10.);
#213=VECTOR('',#824,10.);
#214=VECTOR('',#825,10.);
#215=VECTOR('',#826,10.);
#216=VECTOR('',#827,10.);
#217=VECTOR('',#830,10.);
#218=VECTOR('',#831,10.);
#219=VECTOR('',#832,10.);
#220=VECTOR('',#833,10.);
#221=VECTOR('',#836,10.);
#222=VECTOR('',#837,10.);
#223=VECTOR('',#838,10.);
#224=VECTOR('',#839,10.);
#225=VECTOR('',#840,10.);
#226=VECTOR('',#841,10.);
#227=VECTOR('',#842,10.);
#228=VECTOR('',#843,10.);
#229=VECTOR('',#846,10.);
#230=VECTOR('',#847,10.);
#231=VECTOR('',#848,10.);
#232=VECTOR('',#851,10.);
#233=VECTOR('',#852,10.);
#234=VECTOR('',#853,10.);
#235=VECTOR('',#856,10.);
#236=VECTOR('',#857,10.);
#237=VECTOR('',#860,10.);
#238=VECTOR('',#861,10.);
#239=VECTOR('',#864,10.);
#240=VECTOR('',#867,10.);
#241=VECTOR('',#868,10.);
#242=VECTOR('',#869,10.);
#243=VECTOR('',#870,10.);
#244=VECTOR('',#871,10.);
#245=VECTOR('',#872,10.);
#246=VECTOR('',#873,10.);
#247=VECTOR('',#874,10.);
#248=VECTOR('',#875,10.);
#249=VECTOR('',#876,10.);
#250=VECTOR('',#877,10.);
#251=VECTOR('',#878,10.);
#252=VECTOR('',#879,10.);
#253=VECTOR('',#880,10.);
#254=VECTOR('',#883,10.);
#255=VECTOR('',#884,10.);
#256=VECTOR('',#887,10.);
#257=VECTOR('',#888,10.);
#258=VECTOR('',#891,10.);
#259=VECTOR('',#892,10.);
#260=VECTOR('',#895,10.);
#261=VECTOR('',#900,10.);
#262=VECTOR('',#901,10.);
#263=VECTOR('',#902,10.);
#264=VECTOR('',#903,10.);
#265=VECTOR('',#904,10.);
#266=VECTOR('',#905,10.);
#267=VECTOR('',#908,10.);
#268=VECTOR('',#909,10.);
#269=VECTOR('',#910,10.);
#270=VECTOR('',#911,10.);
#271=VECTOR('',#912,10.);
#272=VECTOR('',#915,10.);
#273=VECTOR('',#916,10.);
#274=VECTOR('',#921,10.);
#275=VECTOR('',#922,10.);
#276=VECTOR('',#923,10.);
#277=VECTOR('',#926,10.);
#278=VECTOR('',#927,10.);
#279=VECTOR('',#928,10.);
#280=VECTOR('',#929,10.);
#281=VECTOR('',#932,10.);
#282=VECTOR('',#933,10.);
#283=VECTOR('',#934,10.);
#284=VECTOR('',#935,10.);
#285=VECTOR('',#938,10.);
#286=VECTOR('',#939,10.);
#287=VECTOR('',#942,10.);
#288=VECTOR('',#943,10.);
#289=VECTOR('',#946,10.);
#290=VECTOR('',#949,10.);
#291=VECTOR('',#950,10.);
#292=VECTOR('',#951,10.);
#293=VECTOR('',#952,10.);
#294=VECTOR('',#955,10.);
#295=VECTOR('',#956,10.);
#296=VECTOR('',#959,10.);
#297=VECTOR('',#962,10.);
#298=VECTOR('',#965,10.);
#299=VECTOR('',#968,10.);
#300=VECTOR('',#971,10.);
#301=VECTOR('',#976,10.);
#302=VECTOR('',#985,10.);
#303=VERTEX_POINT('',#993);
#304=VERTEX_POINT('',#994);
#305=VERTEX_POINT('',#996);
#306=VERTEX_POINT('',#998);
#307=VERTEX_POINT('',#1000);
#308=VERTEX_POINT('',#1002);
#309=VERTEX_POINT('',#1004);
#310=VERTEX_POINT('',#1008);
#311=VERTEX_POINT('',#1010);
#312=VERTEX_POINT('',#1012);
#313=VERTEX_POINT('',#1014);
#314=VERTEX_POINT('',#1016);
#315=VERTEX_POINT('',#1018);
#316=VERTEX_POINT('',#1020);
#317=VERTEX_POINT('',#1024);
#318=VERTEX_POINT('',#1026);
#319=VERTEX_POINT('',#1028);
#320=VERTEX_POINT('',#1032);
#321=VERTEX_POINT('',#1034);
#322=VERTEX_POINT('',#1036);
#323=VERTEX_POINT('',#1039);
#324=VERTEX_POINT('',#1040);
#325=VERTEX_POINT('',#1042);
#326=VERTEX_POINT('',#1044);
#327=VERTEX_POINT('',#1048);
#328=VERTEX_POINT('',#1050);
#329=VERTEX_POINT('',#1054);
#330=VERTEX_POINT('',#1055);
#331=VERTEX_POINT('',#1057);
#332=VERTEX_POINT('',#1061);
#333=VERTEX_POINT('',#1065);
#334=VERTEX_POINT('',#1071);
#335=VERTEX_POINT('',#1072);
#336=VERTEX_POINT('',#1074);
#337=VERTEX_POINT('',#1077);
#338=VERTEX_POINT('',#1079);
#339=VERTEX_POINT('',#1081);
#340=VERTEX_POINT('',#1083);
#341=VERTEX_POINT('',#1085);
#342=VERTEX_POINT('',#1087);
#343=VERTEX_POINT('',#1089);
#344=VERTEX_POINT('',#1091);
#345=VERTEX_POINT('',#1093);
#346=VERTEX_POINT('',#1095);
#347=VERTEX_POINT('',#1102);
#348=VERTEX_POINT('',#1112);
#349=VERTEX_POINT('',#1113);
#350=VERTEX_POINT('',#1115);
#351=VERTEX_POINT('',#1117);
#352=VERTEX_POINT('',#1120);
#353=VERTEX_POINT('',#1124);
#354=VERTEX_POINT('',#1126);
#355=VERTEX_POINT('',#1128);
#356=VERTEX_POINT('',#1130);
#357=VERTEX_POINT('',#1134);
#358=VERTEX_POINT('',#1139);
#359=VERTEX_POINT('',#1140);
#360=VERTEX_POINT('',#1145);
#361=VERTEX_POINT('',#1151);
#362=VERTEX_POINT('',#1152);
#363=VERTEX_POINT('',#1154);
#364=VERTEX_POINT('',#1156);
#365=VERTEX_POINT('',#1168);
#366=VERTEX_POINT('',#1169);
#367=VERTEX_POINT('',#1171);
#368=VERTEX_POINT('',#1173);
#369=EDGE_CURVE('',#303,#304,#101,.F.);
#370=EDGE_CURVE('',#304,#305,#102,.T.);
#371=EDGE_CURVE('',#305,#306,#103,.T.);
#372=EDGE_CURVE('',#306,#307,#104,.T.);
#373=EDGE_CURVE('',#308,#307,#105,.T.);
#374=EDGE_CURVE('',#308,#309,#106,.T.);
#375=EDGE_CURVE('',#309,#303,#107,.T.);
#376=EDGE_CURVE('',#310,#307,#108,.T.);
#377=EDGE_CURVE('',#311,#310,#109,.T.);
#378=EDGE_CURVE('',#312,#311,#110,.T.);
#379=EDGE_CURVE('',#313,#312,#111,.T.);
#380=EDGE_CURVE('',#314,#313,#112,.F.);
#381=EDGE_CURVE('',#314,#315,#113,.T.);
#382=EDGE_CURVE('',#315,#316,#114,.T.);
#383=EDGE_CURVE('',#316,#308,#115,.T.);
#384=EDGE_CURVE('',#311,#317,#116,.T.);
#385=EDGE_CURVE('',#317,#318,#117,.T.);
#386=EDGE_CURVE('',#318,#319,#118,.F.);
#387=EDGE_CURVE('',#319,#312,#119,.F.);
#388=EDGE_CURVE('',#310,#320,#120,.T.);
#389=EDGE_CURVE('',#320,#321,#121,.T.);
#390=EDGE_CURVE('',#321,#322,#122,.T.);
#391=EDGE_CURVE('',#322,#317,#123,.F.);
#392=EDGE_CURVE('',#323,#324,#124,.T.);
#393=EDGE_CURVE('',#324,#325,#125,.F.);
#394=EDGE_CURVE('',#325,#326,#126,.T.);
#395=EDGE_CURVE('',#326,#323,#127,.F.);
#396=EDGE_CURVE('',#327,#306,#128,.F.);
#397=EDGE_CURVE('',#327,#328,#129,.F.);
#398=EDGE_CURVE('',#328,#320,#130,.T.);
#399=EDGE_CURVE('',#329,#330,#131,.T.);
#400=EDGE_CURVE('',#329,#331,#132,.F.);
#401=EDGE_CURVE('',#331,#330,#133,.T.);
#402=EDGE_CURVE('',#316,#332,#134,.F.);
#403=EDGE_CURVE('',#332,#309,#135,.T.);
#404=EDGE_CURVE('',#330,#333,#136,.T.);
#405=EDGE_CURVE('',#333,#331,#137,.T.);
#406=EDGE_CURVE('',#333,#329,#138,.T.);
#407=EDGE_CURVE('',#334,#335,#139,.T.);
#408=EDGE_CURVE('',#334,#336,#140,.T.);
#409=EDGE_CURVE('',#336,#315,#141,.T.);
#410=EDGE_CURVE('',#337,#314,#142,.T.);
#411=EDGE_CURVE('',#337,#338,#143,.T.);
#412=EDGE_CURVE('',#339,#338,#144,.F.);
#413=EDGE_CURVE('',#340,#339,#145,.T.);
#414=EDGE_CURVE('',#340,#341,#146,.T.);
#415=EDGE_CURVE('',#341,#342,#147,.T.);
#416=EDGE_CURVE('',#343,#342,#148,.F.);
#417=EDGE_CURVE('',#344,#343,#149,.F.);
#418=EDGE_CURVE('',#344,#345,#150,.T.);
#419=EDGE_CURVE('',#345,#346,#151,.T.);
#420=EDGE_CURVE('',#335,#346,#152,.F.);
#421=EDGE_CURVE('',#334,#303,#153,.T.);
#422=EDGE_CURVE('',#336,#332,#154,.T.);
#423=EDGE_CURVE('',#347,#335,#155,.T.);
#424=EDGE_CURVE('',#347,#304,#156,.T.);
#425=EDGE_CURVE('',#346,#327,#157,.F.);
#426=EDGE_CURVE('',#347,#327,#158,.F.);
#427=EDGE_CURVE('',#327,#305,#159,.T.);
#428=EDGE_CURVE('',#348,#349,#160,.T.);
#429=EDGE_CURVE('',#350,#349,#161,.F.);
#430=EDGE_CURVE('',#351,#350,#162,.F.);
#431=EDGE_CURVE('',#341,#351,#163,.F.);
#432=EDGE_CURVE('',#340,#352,#164,.F.);
#433=EDGE_CURVE('',#352,#348,#165,.F.);
#434=EDGE_CURVE('',#353,#349,#166,.T.);
#435=EDGE_CURVE('',#354,#353,#167,.F.);
#436=EDGE_CURVE('',#355,#354,#168,.T.);
#437=EDGE_CURVE('',#356,#355,#169,.F.);
#438=EDGE_CURVE('',#356,#350,#170,.F.);
#439=EDGE_CURVE('',#327,#357,#171,.T.);
#440=EDGE_CURVE('',#345,#357,#172,.T.);
#441=EDGE_CURVE('',#358,#359,#173,.T.);
#442=EDGE_CURVE('',#338,#358,#174,.T.);
#443=EDGE_CURVE('',#337,#359,#175,.F.);
#444=EDGE_CURVE('',#360,#348,#176,.F.);
#445=EDGE_CURVE('',#339,#360,#177,.F.);
#446=EDGE_CURVE('',#358,#318,#178,.T.);
#447=EDGE_CURVE('',#353,#322,#179,.T.);
#448=EDGE_CURVE('',#361,#362,#180,.T.);
#449=EDGE_CURVE('',#363,#361,#181,.T.);
#450=EDGE_CURVE('',#363,#364,#182,.T.);
#451=EDGE_CURVE('',#364,#362,#183,.T.);
#452=EDGE_CURVE('',#361,#321,#184,.F.);
#453=EDGE_CURVE('',#354,#362,#185,.T.);
#454=EDGE_CURVE('',#342,#355,#186,.F.);
#455=EDGE_CURVE('',#343,#364,#187,.T.);
#456=EDGE_CURVE('',#356,#351,#188,.T.);
#457=EDGE_CURVE('',#365,#366,#189,.T.);
#458=EDGE_CURVE('',#367,#365,#190,.F.);
#459=EDGE_CURVE('',#368,#367,#191,.T.);
#460=EDGE_CURVE('',#366,#368,#192,.F.);
#461=EDGE_CURVE('',#367,#326,#193,.T.);
#462=EDGE_CURVE('',#368,#325,#194,.F.);
#463=EDGE_CURVE('',#365,#323,#195,.F.);
#464=EDGE_CURVE('',#359,#313,#196,.T.);
#465=EDGE_CURVE('',#319,#359,#197,.T.);
#466=EDGE_CURVE('',#357,#328,#198,.T.);
#467=EDGE_CURVE('',#344,#363,#199,.T.);
#468=EDGE_CURVE('',#352,#360,#200,.T.);
#469=EDGE_CURVE('',#366,#324,#201,.T.);
#470=ORIENTED_EDGE('',*,*,#369,.T.);
#471=ORIENTED_EDGE('',*,*,#370,.T.);
#472=ORIENTED_EDGE('',*,*,#371,.T.);
#473=ORIENTED_EDGE('',*,*,#372,.T.);
#474=ORIENTED_EDGE('',*,*,#373,.F.);
#475=ORIENTED_EDGE('',*,*,#374,.T.);
#476=ORIENTED_EDGE('',*,*,#375,.T.);
#477=ORIENTED_EDGE('',*,*,#373,.T.);
#478=ORIENTED_EDGE('',*,*,#376,.F.);
#479=ORIENTED_EDGE('',*,*,#377,.F.);
#480=ORIENTED_EDGE('',*,*,#378,.F.);
#481=ORIENTED_EDGE('',*,*,#379,.F.);
#482=ORIENTED_EDGE('',*,*,#380,.F.);
#483=ORIENTED_EDGE('',*,*,#381,.T.);
#484=ORIENTED_EDGE('',*,*,#382,.T.);
#485=ORIENTED_EDGE('',*,*,#383,.T.);
#486=ORIENTED_EDGE('',*,*,#378,.T.);
#487=ORIENTED_EDGE('',*,*,#384,.T.);
#488=ORIENTED_EDGE('',*,*,#385,.T.);
#489=ORIENTED_EDGE('',*,*,#386,.T.);
#490=ORIENTED_EDGE('',*,*,#387,.T.);
#491=ORIENTED_EDGE('',*,*,#377,.T.);
#492=ORIENTED_EDGE('',*,*,#388,.T.);
#493=ORIENTED_EDGE('',*,*,#389,.T.);
#494=ORIENTED_EDGE('',*,*,#390,.T.);
#495=ORIENTED_EDGE('',*,*,#391,.T.);
#496=ORIENTED_EDGE('',*,*,#384,.F.);
#497=ORIENTED_EDGE('',*,*,#392,.T.);
#498=ORIENTED_EDGE('',*,*,#393,.T.);
#499=ORIENTED_EDGE('',*,*,#394,.T.);
#500=ORIENTED_EDGE('',*,*,#395,.T.);
#501=ORIENTED_EDGE('',*,*,#396,.F.);
#502=ORIENTED_EDGE('',*,*,#397,.T.);
#503=ORIENTED_EDGE('',*,*,#398,.T.);
#504=ORIENTED_EDGE('',*,*,#388,.F.);
#505=ORIENTED_EDGE('',*,*,#376,.T.);
#506=ORIENTED_EDGE('',*,*,#372,.F.);
#507=ORIENTED_EDGE('',*,*,#399,.F.);
#508=ORIENTED_EDGE('',*,*,#400,.T.);
#509=ORIENTED_EDGE('',*,*,#401,.T.);
#510=ORIENTED_EDGE('',*,*,#383,.F.);
#511=ORIENTED_EDGE('',*,*,#402,.T.);
#512=ORIENTED_EDGE('',*,*,#403,.T.);
#513=ORIENTED_EDGE('',*,*,#374,.F.);
#514=ORIENTED_EDGE('',*,*,#404,.F.);
#515=ORIENTED_EDGE('',*,*,#401,.F.);
#516=ORIENTED_EDGE('',*,*,#405,.F.);
#517=ORIENTED_EDGE('',*,*,#406,.F.);
#518=ORIENTED_EDGE('',*,*,#405,.T.);
#519=ORIENTED_EDGE('',*,*,#400,.F.);
#520=ORIENTED_EDGE('',*,*,#407,.F.);
#521=ORIENTED_EDGE('',*,*,#408,.T.);
#522=ORIENTED_EDGE('',*,*,#409,.T.);
#523=ORIENTED_EDGE('',*,*,#381,.F.);
#524=ORIENTED_EDGE('',*,*,#410,.F.);
#525=ORIENTED_EDGE('',*,*,#411,.T.);
#526=ORIENTED_EDGE('',*,*,#412,.F.);
#527=ORIENTED_EDGE('',*,*,#413,.F.);
#528=ORIENTED_EDGE('',*,*,#414,.T.);
#529=ORIENTED_EDGE('',*,*,#415,.T.);
#530=ORIENTED_EDGE('',*,*,#416,.F.);
#531=ORIENTED_EDGE('',*,*,#417,.F.);
#532=ORIENTED_EDGE('',*,*,#418,.T.);
#533=ORIENTED_EDGE('',*,*,#419,.T.);
#534=ORIENTED_EDGE('',*,*,#420,.F.);
#535=ORIENTED_EDGE('',*,*,#421,.T.);
#536=ORIENTED_EDGE('',*,*,#375,.F.);
#537=ORIENTED_EDGE('',*,*,#403,.F.);
#538=ORIENTED_EDGE('',*,*,#422,.F.);
#539=ORIENTED_EDGE('',*,*,#408,.F.);
#540=ORIENTED_EDGE('',*,*,#407,.T.);
#541=ORIENTED_EDGE('',*,*,#423,.F.);
#542=ORIENTED_EDGE('',*,*,#424,.T.);
#543=ORIENTED_EDGE('',*,*,#369,.F.);
#544=ORIENTED_EDGE('',*,*,#421,.F.);
#545=ORIENTED_EDGE('',*,*,#423,.T.);
#546=ORIENTED_EDGE('',*,*,#420,.T.);
#547=ORIENTED_EDGE('',*,*,#425,.T.);
#548=ORIENTED_EDGE('',*,*,#426,.F.);
#549=ORIENTED_EDGE('',*,*,#396,.T.);
#550=ORIENTED_EDGE('',*,*,#371,.F.);
#551=ORIENTED_EDGE('',*,*,#427,.F.);
#552=ORIENTED_EDGE('',*,*,#426,.T.);
#553=ORIENTED_EDGE('',*,*,#427,.T.);
#554=ORIENTED_EDGE('',*,*,#370,.F.);
#555=ORIENTED_EDGE('',*,*,#424,.F.);
#556=ORIENTED_EDGE('',*,*,#428,.T.);
#557=ORIENTED_EDGE('',*,*,#429,.F.);
#558=ORIENTED_EDGE('',*,*,#430,.F.);
#559=ORIENTED_EDGE('',*,*,#431,.F.);
#560=ORIENTED_EDGE('',*,*,#414,.F.);
#561=ORIENTED_EDGE('',*,*,#432,.T.);
#562=ORIENTED_EDGE('',*,*,#433,.T.);
#563=ORIENTED_EDGE('',*,*,#434,.F.);
#564=ORIENTED_EDGE('',*,*,#435,.F.);
#565=ORIENTED_EDGE('',*,*,#436,.F.);
#566=ORIENTED_EDGE('',*,*,#437,.F.);
#567=ORIENTED_EDGE('',*,*,#438,.T.);
#568=ORIENTED_EDGE('',*,*,#429,.T.);
#569=ORIENTED_EDGE('',*,*,#439,.F.);
#570=ORIENTED_EDGE('',*,*,#425,.F.);
#571=ORIENTED_EDGE('',*,*,#419,.F.);
#572=ORIENTED_EDGE('',*,*,#440,.T.);
#573=ORIENTED_EDGE('',*,*,#409,.F.);
#574=ORIENTED_EDGE('',*,*,#422,.T.);
#575=ORIENTED_EDGE('',*,*,#402,.F.);
#576=ORIENTED_EDGE('',*,*,#382,.F.);
#577=ORIENTED_EDGE('',*,*,#441,.F.);
#578=ORIENTED_EDGE('',*,*,#442,.F.);
#579=ORIENTED_EDGE('',*,*,#411,.F.);
#580=ORIENTED_EDGE('',*,*,#443,.T.);
#581=ORIENTED_EDGE('',*,*,#428,.F.);
#582=ORIENTED_EDGE('',*,*,#444,.F.);
#583=ORIENTED_EDGE('',*,*,#445,.F.);
#584=ORIENTED_EDGE('',*,*,#412,.T.);
#585=ORIENTED_EDGE('',*,*,#442,.T.);
#586=ORIENTED_EDGE('',*,*,#446,.T.);
#587=ORIENTED_EDGE('',*,*,#385,.F.);
#588=ORIENTED_EDGE('',*,*,#391,.F.);
#589=ORIENTED_EDGE('',*,*,#447,.F.);
#590=ORIENTED_EDGE('',*,*,#434,.T.);
#591=ORIENTED_EDGE('',*,*,#448,.F.);
#592=ORIENTED_EDGE('',*,*,#449,.F.);
#593=ORIENTED_EDGE('',*,*,#450,.T.);
#594=ORIENTED_EDGE('',*,*,#451,.T.);
#595=ORIENTED_EDGE('',*,*,#435,.T.);
#596=ORIENTED_EDGE('',*,*,#447,.T.);
#597=ORIENTED_EDGE('',*,*,#390,.F.);
#598=ORIENTED_EDGE('',*,*,#452,.F.);
#599=ORIENTED_EDGE('',*,*,#448,.T.);
#600=ORIENTED_EDGE('',*,*,#453,.F.);
#601=ORIENTED_EDGE('',*,*,#454,.T.);
#602=ORIENTED_EDGE('',*,*,#436,.T.);
#603=ORIENTED_EDGE('',*,*,#453,.T.);
#604=ORIENTED_EDGE('',*,*,#451,.F.);
#605=ORIENTED_EDGE('',*,*,#455,.F.);
#606=ORIENTED_EDGE('',*,*,#416,.T.);
#607=ORIENTED_EDGE('',*,*,#437,.T.);
#608=ORIENTED_EDGE('',*,*,#454,.F.);
#609=ORIENTED_EDGE('',*,*,#415,.F.);
#610=ORIENTED_EDGE('',*,*,#431,.T.);
#611=ORIENTED_EDGE('',*,*,#456,.F.);
#612=ORIENTED_EDGE('',*,*,#457,.F.);
#613=ORIENTED_EDGE('',*,*,#458,.F.);
#614=ORIENTED_EDGE('',*,*,#459,.F.);
#615=ORIENTED_EDGE('',*,*,#460,.F.);
#616=ORIENTED_EDGE('',*,*,#459,.T.);
#617=ORIENTED_EDGE('',*,*,#461,.T.);
#618=ORIENTED_EDGE('',*,*,#394,.F.);
#619=ORIENTED_EDGE('',*,*,#462,.F.);
#620=ORIENTED_EDGE('',*,*,#458,.T.);
#621=ORIENTED_EDGE('',*,*,#463,.T.);
#622=ORIENTED_EDGE('',*,*,#395,.F.);
#623=ORIENTED_EDGE('',*,*,#461,.F.);
#624=ORIENTED_EDGE('',*,*,#410,.T.);
#625=ORIENTED_EDGE('',*,*,#380,.T.);
#626=ORIENTED_EDGE('',*,*,#464,.F.);
#627=ORIENTED_EDGE('',*,*,#443,.F.);
#628=ORIENTED_EDGE('',*,*,#387,.F.);
#629=ORIENTED_EDGE('',*,*,#465,.T.);
#630=ORIENTED_EDGE('',*,*,#464,.T.);
#631=ORIENTED_EDGE('',*,*,#379,.T.);
#632=ORIENTED_EDGE('',*,*,#399,.T.);
#633=ORIENTED_EDGE('',*,*,#404,.T.);
#634=ORIENTED_EDGE('',*,*,#406,.T.);
#635=ORIENTED_EDGE('',*,*,#397,.F.);
#636=ORIENTED_EDGE('',*,*,#439,.T.);
#637=ORIENTED_EDGE('',*,*,#466,.T.);
#638=ORIENTED_EDGE('',*,*,#467,.F.);
#639=ORIENTED_EDGE('',*,*,#417,.T.);
#640=ORIENTED_EDGE('',*,*,#455,.T.);
#641=ORIENTED_EDGE('',*,*,#450,.F.);
#642=ORIENTED_EDGE('',*,*,#441,.T.);
#643=ORIENTED_EDGE('',*,*,#465,.F.);
#644=ORIENTED_EDGE('',*,*,#386,.F.);
#645=ORIENTED_EDGE('',*,*,#446,.F.);
#646=ORIENTED_EDGE('',*,*,#432,.F.);
#647=ORIENTED_EDGE('',*,*,#413,.T.);
#648=ORIENTED_EDGE('',*,*,#445,.T.);
#649=ORIENTED_EDGE('',*,*,#468,.F.);
#650=ORIENTED_EDGE('',*,*,#444,.T.);
#651=ORIENTED_EDGE('',*,*,#433,.F.);
#652=ORIENTED_EDGE('',*,*,#468,.T.);
#653=ORIENTED_EDGE('',*,*,#449,.T.);
#654=ORIENTED_EDGE('',*,*,#452,.T.);
#655=ORIENTED_EDGE('',*,*,#389,.F.);
#656=ORIENTED_EDGE('',*,*,#398,.F.);
#657=ORIENTED_EDGE('',*,*,#466,.F.);
#658=ORIENTED_EDGE('',*,*,#440,.F.);
#659=ORIENTED_EDGE('',*,*,#418,.F.);
#660=ORIENTED_EDGE('',*,*,#467,.T.);
#661=ORIENTED_EDGE('',*,*,#438,.F.);
#662=ORIENTED_EDGE('',*,*,#456,.T.);
#663=ORIENTED_EDGE('',*,*,#430,.T.);
#664=ORIENTED_EDGE('',*,*,#460,.T.);
#665=ORIENTED_EDGE('',*,*,#462,.T.);
#666=ORIENTED_EDGE('',*,*,#393,.F.);
#667=ORIENTED_EDGE('',*,*,#469,.F.);
#668=ORIENTED_EDGE('',*,*,#457,.T.);
#669=ORIENTED_EDGE('',*,*,#469,.T.);
#670=ORIENTED_EDGE('',*,*,#392,.F.);
#671=ORIENTED_EDGE('',*,*,#463,.F.);
#672=PLANE('',#765);
#673=PLANE('',#766);
#674=PLANE('',#767);
#675=PLANE('',#768);
#676=PLANE('',#769);
#677=PLANE('',#770);
#678=PLANE('',#771);
#679=PLANE('',#772);
#680=PLANE('',#773);
#681=PLANE('',#774);
#682=PLANE('',#775);
#683=PLANE('',#776);
#684=PLANE('',#777);
#685=PLANE('',#778);
#686=PLANE('',#779);
#687=PLANE('',#780);
#688=PLANE('',#781);
#689=PLANE('',#782);
#690=PLANE('',#783);
#691=PLANE('',#784);
#692=PLANE('',#785);
#693=PLANE('',#786);
#694=PLANE('',#787);
#695=PLANE('',#788);
#696=PLANE('',#789);
#697=PLANE('',#790);
#698=PLANE('',#791);
#699=PLANE('',#792);
#700=PLANE('',#793);
#701=PLANE('',#794);
#702=PLANE('',#795);
#703=PLANE('',#796);
#704=PLANE('',#797);
#705=PLANE('',#798);
#706=PLANE('',#799);
#707=PLANE('',#800);
#708=PLANE('',#801);
#709=PLANE('',#802);
#710=PLANE('',#803);
#711=ADVANCED_FACE('',(#21),#672,.T.);
#712=ADVANCED_FACE('',(#22),#673,.T.);
#713=ADVANCED_FACE('',(#23),#674,.T.);
#714=ADVANCED_FACE('',(#24,#19),#675,.T.);
#715=ADVANCED_FACE('',(#25),#676,.T.);
#716=ADVANCED_FACE('',(#26),#677,.T.);
#717=ADVANCED_FACE('',(#27),#678,.T.);
#718=ADVANCED_FACE('',(#28),#679,.T.);
#719=ADVANCED_FACE('',(#29),#680,.T.);
#720=ADVANCED_FACE('',(#30),#681,.F.);
#721=ADVANCED_FACE('',(#31),#682,.T.);
#722=ADVANCED_FACE('',(#32),#683,.T.);
#723=ADVANCED_FACE('',(#33),#684,.T.);
#724=ADVANCED_FACE('',(#34),#685,.T.);
#725=ADVANCED_FACE('',(#35),#686,.T.);
#726=ADVANCED_FACE('',(#36),#687,.T.);
#727=ADVANCED_FACE('',(#37),#688,.T.);
#728=ADVANCED_FACE('',(#38),#689,.T.);
#729=ADVANCED_FACE('',(#39),#690,.T.);
#730=ADVANCED_FACE('',(#40),#691,.T.);
#731=ADVANCED_FACE('',(#41),#692,.T.);
#732=ADVANCED_FACE('',(#42),#693,.T.);
#733=ADVANCED_FACE('',(#43),#694,.T.);
#734=ADVANCED_FACE('',(#44),#695,.T.);
#735=ADVANCED_FACE('',(#45),#696,.T.);
#736=ADVANCED_FACE('',(#46),#697,.T.);
#737=ADVANCED_FACE('',(#47),#698,.T.);
#738=ADVANCED_FACE('',(#48),#699,.T.);
#739=ADVANCED_FACE('',(#49),#700,.T.);
#740=ADVANCED_FACE('',(#50,#20),#701,.T.);
#741=ADVANCED_FACE('',(#51),#702,.T.);
#742=ADVANCED_FACE('',(#52),#703,.T.);
#743=ADVANCED_FACE('',(#53),#704,.T.);
#744=ADVANCED_FACE('',(#54),#705,.T.);
#745=ADVANCED_FACE('',(#55),#706,.T.);
#746=ADVANCED_FACE('',(#56),#707,.T.);
#747=ADVANCED_FACE('',(#57),#708,.T.);
#748=ADVANCED_FACE('',(#58),#709,.T.);
#749=ADVANCED_FACE('',(#59),#710,.T.);
#750=CLOSED_SHELL('',(#711,#712,#713,#714,#715,#716,#717,#718,#719,#720,
#721,#722,#723,#724,#725,#726,#727,#728,#729,#730,#731,#732,#733,#734,#735,
#736,#737,#738,#739,#740,#741,#742,#743,#744,#745,#746,#747,#748,#749));
#751=DERIVED_UNIT_ELEMENT(#753,1.);
#752=DERIVED_UNIT_ELEMENT(#1206,-3.);
#753=(
MASS_UNIT()
NAMED_UNIT(*)
SI_UNIT(.KILO.,.GRAM.)
);
#754=DERIVED_UNIT((#751,#752));
#755=MEASURE_REPRESENTATION_ITEM('density measure',
POSITIVE_RATIO_MEASURE(7850.),#754);
#756=PROPERTY_DEFINITION_REPRESENTATION(#761,#758);
#757=PROPERTY_DEFINITION_REPRESENTATION(#762,#759);
#758=REPRESENTATION('material name',(#760),#1203);
#759=REPRESENTATION('density',(#755),#1203);
#760=DESCRIPTIVE_REPRESENTATION_ITEM('Steel','Steel');
#761=PROPERTY_DEFINITION('material property','material name',#1218);
#762=PROPERTY_DEFINITION('material property','density of part',#1218);
#763=AXIS2_PLACEMENT_3D('',#990,#805,#806);
#764=AXIS2_PLACEMENT_3D('',#991,#807,#808);
#765=AXIS2_PLACEMENT_3D('',#992,#809,#810);
#766=AXIS2_PLACEMENT_3D('',#1007,#818,#819);
#767=AXIS2_PLACEMENT_3D('',#1023,#828,#829);
#768=AXIS2_PLACEMENT_3D('',#1031,#834,#835);
#769=AXIS2_PLACEMENT_3D('',#1047,#844,#845);
#770=AXIS2_PLACEMENT_3D('',#1053,#849,#850);
#771=AXIS2_PLACEMENT_3D('',#1060,#854,#855);
#772=AXIS2_PLACEMENT_3D('',#1064,#858,#859);
#773=AXIS2_PLACEMENT_3D('',#1068,#862,#863);
#774=AXIS2_PLACEMENT_3D('',#1070,#865,#866);
#775=AXIS2_PLACEMENT_3D('',#1098,#881,#882);
#776=AXIS2_PLACEMENT_3D('',#1101,#885,#886);
#777=AXIS2_PLACEMENT_3D('',#1105,#889,#890);
#778=AXIS2_PLACEMENT_3D('',#1108,#893,#894);
#779=AXIS2_PLACEMENT_3D('',#1110,#896,#897);
#780=AXIS2_PLACEMENT_3D('',#1111,#898,#899);
#781=AXIS2_PLACEMENT_3D('',#1123,#906,#907);
#782=AXIS2_PLACEMENT_3D('',#1133,#913,#914);
#783=AXIS2_PLACEMENT_3D('',#1137,#917,#918);
#784=AXIS2_PLACEMENT_3D('',#1138,#919,#920);
#785=AXIS2_PLACEMENT_3D('',#1144,#924,#925);
#786=AXIS2_PLACEMENT_3D('',#1150,#930,#931);
#787=AXIS2_PLACEMENT_3D('',#1159,#936,#937);
#788=AXIS2_PLACEMENT_3D('',#1162,#940,#941);
#789=AXIS2_PLACEMENT_3D('',#1165,#944,#945);
#790=AXIS2_PLACEMENT_3D('',#1167,#947,#948);
#791=AXIS2_PLACEMENT_3D('',#1176,#953,#954);
#792=AXIS2_PLACEMENT_3D('',#1179,#957,#958);
#793=AXIS2_PLACEMENT_3D('',#1181,#960,#961);
#794=AXIS2_PLACEMENT_3D('',#1183,#963,#964);
#795=AXIS2_PLACEMENT_3D('',#1185,#966,#967);
#796=AXIS2_PLACEMENT_3D('',#1187,#969,#970);
#797=AXIS2_PLACEMENT_3D('',#1189,#972,#973);
#798=AXIS2_PLACEMENT_3D('',#1190,#974,#975);
#799=AXIS2_PLACEMENT_3D('',#1192,#977,#978);
#800=AXIS2_PLACEMENT_3D('',#1193,#979,#980);
#801=AXIS2_PLACEMENT_3D('',#1194,#981,#982);
#802=AXIS2_PLACEMENT_3D('',#1195,#983,#984);
#803=AXIS2_PLACEMENT_3D('',#1197,#986,#987);
#804=AXIS2_PLACEMENT_3D('',#1198,#988,#989);
#805=DIRECTION('axis',(0.,0.,1.));
#806=DIRECTION('refdir',(1.,0.,0.));
#807=DIRECTION('axis',(0.,0.,1.));
#808=DIRECTION('refdir',(1.,0.,0.));
#809=DIRECTION('center_axis',(0.,0.,1.));
#810=DIRECTION('ref_axis',(1.,0.,0.));
#811=DIRECTION('',(-1.,0.,0.));
#812=DIRECTION('',(0.,1.,0.));
#813=DIRECTION('',(-0.866025403784439,-0.5,0.));
#814=DIRECTION('',(0.,-1.,0.));
#815=DIRECTION('',(1.,0.,0.));
#816=DIRECTION('',(0.5,-0.866025403784439,0.));
#817=DIRECTION('',(0.866025403784439,0.5,0.));
#818=DIRECTION('center_axis',(0.,-0.984807753012208,0.17364817766693));
#819=DIRECTION('ref_axis',(1.,0.,0.));
#820=DIRECTION('',(0.171087869746036,-0.171087869746036,-0.970287525247814));
#821=DIRECTION('',(1.,0.,0.));
#822=DIRECTION('',(0.299262211648177,0.165690039994497,0.939674911512521));
#823=DIRECTION('',(0.814994484643551,0.10062368612555,0.570665281746752));
#824=DIRECTION('',(0.,-0.17364817766693,-0.984807753012208));
#825=DIRECTION('',(1.,0.,0.));
#826=DIRECTION('',(0.299262211648177,0.165690039994497,0.939674911512521));
#827=DIRECTION('',(-0.0997557416394318,0.17278201286621,0.979895488325091));
#828=DIRECTION('center_axis',(-0.813797681349374,-0.469846310392954,0.342020143325669));
#829=DIRECTION('ref_axis',(0.5,-0.866025403784439,-2.07638725392943E-17));
#830=DIRECTION('',(-0.5,0.866025403784439,0.));
#831=DIRECTION('',(-0.531057830175439,0.362201811245755,-0.766020514698953));
#832=DIRECTION('',(-0.5,0.866025403784439,0.));
#833=DIRECTION('',(-0.578856376717218,0.70756011630878,-0.405319598518156));
#834=DIRECTION('center_axis',(0.,0.,1.));
#835=DIRECTION('ref_axis',(1.,0.,0.));
#836=DIRECTION('',(0.,1.,0.));
#837=DIRECTION('',(-0.5,0.866025403784439,0.));
#838=DIRECTION('',(-1.,0.,0.));
#839=DIRECTION('',(0.573576436351046,0.819152044288992,0.));
#840=DIRECTION('',(1.,0.,0.));
#841=DIRECTION('',(0.,1.,0.));
#842=DIRECTION('',(-1.,0.,0.));
#843=DIRECTION('',(0.,-1.,0.));
#844=DIRECTION('center_axis',(0.984807753012208,0.,0.17364817766693));
#845=DIRECTION('ref_axis',(0.,1.,0.));
#846=DIRECTION('',(0.17278201286621,0.0997557416394317,-0.979895488325091));
#847=DIRECTION('',(0.,-1.,0.));
#848=DIRECTION('',(-0.166289622503351,0.288022074947253,0.943075312894348));
#849=DIRECTION('center_axis',(0.,0.,1.));
#850=DIRECTION('ref_axis',(1.,0.,0.));
#851=DIRECTION('',(0.,-1.,0.));
#852=DIRECTION('',(1.,0.,0.));
#853=DIRECTION('',(0.5,-0.866025403784439,0.));
#854=DIRECTION('center_axis',(-0.866025403784439,-0.5,0.));
#855=DIRECTION('ref_axis',(0.5,-0.866025403784439,0.));
#856=DIRECTION('',(-0.5,0.866025403784439,0.));
#857=DIRECTION('',(0.,0.,1.));
#858=DIRECTION('center_axis',(-0.866025403784439,-0.5,0.));
#859=DIRECTION('ref_axis',(0.5,-0.866025403784439,0.));
#860=DIRECTION('',(-0.471913907098166,0.817378863892363,-0.330437675136133));
#861=DIRECTION('',(0.0502558068751962,-0.0870456108832091,0.994935885120892));
#862=DIRECTION('center_axis',(0.,0.996194698091746,0.0871557427476582));
#863=DIRECTION('ref_axis',(-1.,0.,0.));
#864=DIRECTION('',(0.8181226034015,-0.0501183720693114,0.572855614081483));
#865=DIRECTION('center_axis',(0.,0.,1.));
#866=DIRECTION('ref_axis',(1.,0.,0.));
#867=DIRECTION('',(1.,0.,0.));
#868=DIRECTION('',(-0.866025403784439,-0.5,0.));
#869=DIRECTION('',(-0.5,0.866025403784439,0.));
#870=DIRECTION('',(0.,-1.,0.));
#871=DIRECTION('',(-0.5,0.866025403784439,0.));
#872=DIRECTION('',(0.573576436351046,0.819152044288992,0.));
#873=DIRECTION('',(-1.,0.,0.));
#874=DIRECTION('',(0.866025403784439,0.5,0.));
#875=DIRECTION('',(0.5,-0.866025403784439,0.));
#876=DIRECTION('',(0.966902850310784,-0.255144817820942,0.));
#877=DIRECTION('',(-0.380289452899569,-0.924867521331216,0.));
#878=DIRECTION('',(0.5,-0.866025403784439,0.));
#879=DIRECTION('',(-0.866025403784439,-0.5,0.));
#880=DIRECTION('',(0.,-1.,0.));
#881=DIRECTION('center_axis',(0.5,-0.866025403784439,0.));
#882=DIRECTION('ref_axis',(0.866025403784439,0.5,0.));
#883=DIRECTION('',(0.409064926172233,0.236173745241573,0.881412416655378));
#884=DIRECTION('',(0.296198132726024,0.171010071662834,0.939692620785908));
#885=DIRECTION('center_axis',(0.,-0.965925826289068,0.258819045102521));
#886=DIRECTION('ref_axis',(1.,0.,0.));
#887=DIRECTION('',(0.167900917937428,-0.255144817820942,-0.952213423395662));
#888=DIRECTION('',(0.,0.258819045102521,0.965925826289068));
#889=DIRECTION('center_axis',(0.984807753012208,0.,0.17364817766693));
#890=DIRECTION('ref_axis',(0.,1.,0.));
#891=DIRECTION('',(0.17278201286621,0.0997557416394317,-0.979895488325091));
#892=DIRECTION('',(0.,-1.,0.));
#893=DIRECTION('center_axis',(-0.5,0.866025403784439,0.));
#894=DIRECTION('ref_axis',(-0.866025403784439,-0.5,0.));
#895=DIRECTION('',(0.,0.,1.));
#896=DIRECTION('center_axis',(1.,0.,0.));
#897=DIRECTION('ref_axis',(0.,1.,0.));
#898=DIRECTION('center_axis',(-0.453153893518325,0.784885567221396,-0.422618261740699));
#899=DIRECTION('ref_axis',(-0.866025403784439,-0.5,-6.93889390390723E-18));
#900=DIRECTION('',(0.739069561105414,0.595873002890739,0.314183940190176));
#901=DIRECTION('',(0.826602455462685,0.192484239184267,-0.528846100759676));
#902=DIRECTION('',(0.866025403784439,0.5,0.));
#903=DIRECTION('',(0.21130913087035,-0.365998150770667,-0.90630778703665));
#904=DIRECTION('',(0.682037565680259,0.,-0.731317139824404));
#905=DIRECTION('',(0.883306594854148,0.331488657036081,-0.331488657036081));
#906=DIRECTION('center_axis',(0.,0.939692620785908,0.342020143325669));
#907=DIRECTION('ref_axis',(-1.,0.,0.));
#908=DIRECTION('',(-0.585952852096498,0.277154362867222,-0.761475353681026));
#909=DIRECTION('',(1.,0.,0.));
#910=DIRECTION('',(0.748996474694386,-0.226613648099614,0.622615881093926));
#911=DIRECTION('',(-0.193724626205288,0.335540895264848,-0.921891033043757));
#912=DIRECTION('',(1.,0.,0.));
#913=DIRECTION('center_axis',(0.5,-0.866025403784439,0.));
#914=DIRECTION('ref_axis',(0.866025403784439,0.5,0.));
#915=DIRECTION('',(0.866025403784439,0.5,0.));
#916=DIRECTION('',(0.,0.,1.));
#917=DIRECTION('center_axis',(-0.813797681349374,-0.469846310392954,0.342020143325669));
#918=DIRECTION('ref_axis',(0.5,-0.866025403784439,-2.07638725392943E-17));
#919=DIRECTION('center_axis',(-0.852868531952443,-0.492403876506104,0.17364817766693));
#920=DIRECTION('ref_axis',(0.5,-0.866025403784439,0.));
#921=DIRECTION('',(0.5,-0.866025403784439,0.));
#922=DIRECTION('',(0.435189651697505,-0.486638255325486,0.75749136992389));
#923=DIRECTION('',(0.,-0.332579245006702,-0.943075312894348));
#924=DIRECTION('center_axis',(-0.627506871597133,0.439385041770705,0.642787609686539));
#925=DIRECTION('ref_axis',(-0.573576436351046,-0.819152044288992,-8.23209785419129E-17));
#926=DIRECTION('',(-0.22341109924278,0.689234169471861,-0.689234169471861));
#927=DIRECTION('',(-0.715561001950806,0.,-0.698550250509696));
#928=DIRECTION('',(0.573576436351046,0.819152044288992,0.));
#929=DIRECTION('',(0.663657617846605,-0.129895170519904,0.736672119025672));
#930=DIRECTION('center_axis',(-0.224143868042013,-0.12940952255126,0.965925826289068));
#931=DIRECTION('ref_axis',(0.974444369716801,-0.0147545500233154,0.224143868042013));
#932=DIRECTION('',(0.974514160163913,-0.0389538000830723,0.220917978216151));
#933=DIRECTION('',(-0.5,0.866025403784439,1.43673431542158E-17));
#934=DIRECTION('',(0.340211012929639,0.918399232505635,0.201988406633772));
#935=DIRECTION('',(-0.947994269708678,0.258777668440183,-0.185313202217689));
#936=DIRECTION('center_axis',(0.,0.984807753012208,0.17364817766693));
#937=DIRECTION('ref_axis',(-1.,0.,0.));
#938=DIRECTION('',(-0.0997557416394318,0.17278201286621,-0.979895488325091));
#939=DIRECTION('',(0.435956206654329,-0.156277782402569,0.886295346149862));
#940=DIRECTION('center_axis',(0.254887002244179,0.965925826289068,0.0449434555275478));
#941=DIRECTION('ref_axis',(-0.966953288346764,0.254887002244179,0.0058270268881583));
#942=DIRECTION('',(-0.0316282385026547,0.0547817160405041,-0.997997303662128));
#943=DIRECTION('',(-0.181321858278324,0.00208941564302816,0.983421587139903));
#944=DIRECTION('center_axis',(0.866025403784439,0.5,0.));
#945=DIRECTION('ref_axis',(-0.5,0.866025403784439,0.));
#946=DIRECTION('',(-0.5,0.866025403784439,0.));
#947=DIRECTION('center_axis',(0.,0.,1.));
#948=DIRECTION('ref_axis',(1.,0.,0.));
#949=DIRECTION('',(1.,0.,0.));
#950=DIRECTION('',(0.,-1.,0.));
#951=DIRECTION('',(-1.,0.,0.));
#952=DIRECTION('',(0.,1.,0.));
#953=DIRECTION('center_axis',(0.,1.,0.));
#954=DIRECTION('ref_axis',(-1.,0.,0.));
#955=DIRECTION('',(0.17364817766693,0.,0.984807753012208));
#956=DIRECTION('',(-0.17364817766693,0.,-0.984807753012208));
#957=DIRECTION('center_axis',(0.984807753012208,0.,-0.17364817766693));
#958=DIRECTION('ref_axis',(0.,1.,0.));
#959=DIRECTION('',(-0.17364817766693,0.,-0.984807753012208));
#960=DIRECTION('center_axis',(-1.,0.,0.));
#961=DIRECTION('ref_axis',(0.,-1.,0.));
#962=DIRECTION('',(0.,-1.,0.));
#963=DIRECTION('center_axis',(-0.573576436351046,0.,0.819152044288992));
#964=DIRECTION('ref_axis',(0.819152044288992,0.,0.573576436351046));
#965=DIRECTION('',(0.,-1.,0.));
#966=DIRECTION('center_axis',(0.,0.,1.));
#967=DIRECTION('ref_axis',(1.,0.,0.));
#968=DIRECTION('',(-0.5,0.866025403784439,0.));
#969=DIRECTION('center_axis',(0.911584407094561,-0.37482766715258,0.168872995706869));
#970=DIRECTION('ref_axis',(0.379741876482208,0.925086086262186,0.00344096641694576));
#971=DIRECTION('',(-0.105748546247092,0.183161854926511,0.97737862666753));
#972=DIRECTION('center_axis',(0.,0.,1.));
#973=DIRECTION('ref_axis',(1.,0.,0.));
#974=DIRECTION('center_axis',(0.,1.,0.));
#975=DIRECTION('ref_axis',(-1.,0.,0.));
#976=DIRECTION('',(-1.,0.,0.));
#977=DIRECTION('center_axis',(0.,0.707106781186548,0.707106781186548));
#978=DIRECTION('ref_axis',(1.,0.,0.));
#979=DIRECTION('center_axis',(0.866025403784439,0.5,0.));
#980=DIRECTION('ref_axis',(-0.5,0.866025403784439,0.));
#981=DIRECTION('center_axis',(0.,0.,1.));
#982=DIRECTION('ref_axis',(1.,0.,0.));
#983=DIRECTION('center_axis',(-0.984807753012208,0.,0.17364817766693));
#984=DIRECTION('ref_axis',(0.,-1.,0.));
#985=DIRECTION('',(0.17364817766693,0.,0.984807753012208));
#986=DIRECTION('center_axis',(0.,-1.,0.));
#987=DIRECTION('ref_axis',(1.,0.,0.));
#988=DIRECTION('',(0.,0.,1.));
#989=DIRECTION('',(1.,0.,0.));
#990=CARTESIAN_POINT('',(0.,0.,0.));
#991=CARTESIAN_POINT('',(0.,0.,0.));
#992=CARTESIAN_POINT('Origin',(12.6794919243112,-2.74519052838329,14.));
#993=CARTESIAN_POINT('',(22.7890339127578,2.17649275056909,14.));
#994=CARTESIAN_POINT('',(33.1738856527524,2.17649275056909,14.));
#995=CARTESIAN_POINT('',(14.4855516125702,2.17649275056909,14.));
#996=CARTESIAN_POINT('',(33.1738856527524,8.17218969814928,14.));
#997=CARTESIAN_POINT('',(33.1738856527524,1.5849364905389,14.));
#998=CARTESIAN_POINT('',(32.4685777299185,7.76497997903958,14.));
#999=CARTESIAN_POINT('',(21.7644284148501,1.5849364905389,14.));
#1000=CARTESIAN_POINT('',(32.4685777299185,2.46857772991851,14.));
#1001=CARTESIAN_POINT('',(32.4685777299185,1.79727771688616,14.));
#1002=CARTESIAN_POINT('',(9.1172781998837,2.46857772991851,14.));
#1003=CARTESIAN_POINT('',(6.33974596215561,2.46857772991851,14.));
#1004=CARTESIAN_POINT('',(12.6616936341925,-3.67052988543557,14.));
#1005=CARTESIAN_POINT('',(7.70876710125839,4.90819051576221,14.));
#1006=CARTESIAN_POINT('',(35.4903810567666,9.50961894323342,14.));
#1007=CARTESIAN_POINT('Origin',(0.,0.,0.));
#1008=CARTESIAN_POINT('',(30.,4.93715545983702,28.));
#1009=CARTESIAN_POINT('',(34.2966406648622,0.64051479497479,3.6325399119367));
#1010=CARTESIAN_POINT('',(15.2570234413014,4.93715545983702,28.));
#1011=CARTESIAN_POINT('',(7.5,4.93715545983702,28.));
#1012=CARTESIAN_POINT('',(12.2579971710576,3.27670932490893,18.5831420225278));
#1013=CARTESIAN_POINT('',(6.04421107899753,-0.163626360777548,-0.92797120508791));
#1014=CARTESIAN_POINT('',(0.,1.76326980708465,10.));
#1015=CARTESIAN_POINT('',(2.5580233767558,2.07909739391436,11.7911472513211));
#1016=CARTESIAN_POINT('',(0.,0.,0.));
#1017=CARTESIAN_POINT('',(0.,0.165555246210144,0.93891045797392));
#1018=CARTESIAN_POINT('',(6.33974596215561,0.,0.));
#1019=CARTESIAN_POINT('',(0.,0.,0.));
#1020=CARTESIAN_POINT('',(9.52448791899341,1.76326980708465,9.99999999999999));
#1021=CARTESIAN_POINT('',(6.04421107899753,-0.163626360777548,-0.92797120508791));
#1022=CARTESIAN_POINT('',(9.99125281559502,0.954809290981027,5.41499257314277));
#1023=CARTESIAN_POINT('Origin',(-1.52872506320456E-15,10.9807621135332,
-6.93889390390723E-17));
#1024=CARTESIAN_POINT('',(8.1960806578602,17.1670671100941,28.));
#1025=CARTESIAN_POINT('',(9.83061860630204,14.3359643364934,28.));
#1026=CARTESIAN_POINT('',(-4.28275086131213,25.6781088868092,10.));
#1027=CARTESIAN_POINT('',(-6.99519079394201,27.5280969684637,6.08746069595336));
#1028=CARTESIAN_POINT('',(2.22044604925031E-15,18.2601667988572,10.));
#1029=CARTESIAN_POINT('',(1.43633061071949,15.7723692046246,10.));
#1030=CARTESIAN_POINT('',(7.21254364924753,9.44397606725403,15.0502774328697));
#1031=CARTESIAN_POINT('Origin',(15.,15.,28.));
#1032=CARTESIAN_POINT('',(30.,19.0192378864668,28.));
#1033=CARTESIAN_POINT('',(30.,0.,28.));
#1034=CARTESIAN_POINT('',(23.6602540378444,30.,28.));
#1035=CARTESIAN_POINT('',(20.4903810567666,35.4903810567666,28.));
#1036=CARTESIAN_POINT('',(17.1817970047116,30.,28.));
#1037=CARTESIAN_POINT('',(30.,30.,28.));
#1038=CARTESIAN_POINT('',(8.98338284943569,18.2914511656963,28.));
#1039=CARTESIAN_POINT('',(17.087155459837,16.35,28.));
#1040=CARTESIAN_POINT('',(22.787155459837,16.35,28.));
#1041=CARTESIAN_POINT('',(12.15,16.35,28.));
#1042=CARTESIAN_POINT('',(22.787155459837,13.65,28.));
#1043=CARTESIAN_POINT('',(22.787155459837,15.675,28.));
#1044=CARTESIAN_POINT('',(17.087155459837,13.65,28.));
#1045=CARTESIAN_POINT('',(17.85,13.65,28.));
#1046=CARTESIAN_POINT('',(17.087155459837,14.325,28.));
#1047=CARTESIAN_POINT('Origin',(34.862148974674,6.33974596215561,0.425382915658175));
#1048=CARTESIAN_POINT('',(33.1738856527524,8.17218969814928,10.));
#1049=CARTESIAN_POINT('',(34.5586550723112,8.97168669529711,2.14658236649365));
#1050=CARTESIAN_POINT('',(33.1738856527524,13.5219066784858,10.));
#1051=CARTESIAN_POINT('',(33.1738856527524,9.50961894323342,10.));
#1052=CARTESIAN_POINT('',(34.3779577792147,11.4363925794756,3.17136763968578));
#1053=CARTESIAN_POINT('Origin',(12.6794919243112,-2.74519052838329,14.));
#1054=CARTESIAN_POINT('',(5.71259202696846,8.66317919514325,14.));
#1055=CARTESIAN_POINT('',(5.71259202696846,8.36566716523495,14.));
#1056=CARTESIAN_POINT('',(5.71259202696846,-2.74519052838329,14.));
#1057=CARTESIAN_POINT('',(5.54082337641375,8.66317919514325,14.));
#1058=CARTESIAN_POINT('',(16.607038956955,8.66317919514325,14.));
#1059=CARTESIAN_POINT('',(7.70876710125839,4.90819051576221,14.));
#1060=CARTESIAN_POINT('Origin',(10.0373961823903,0.874886635259238,10.));
#1061=CARTESIAN_POINT('',(12.6616936341925,-3.67052988543557,10.));
#1062=CARTESIAN_POINT('',(7.70876710125839,4.90819051576221,10.));
#1063=CARTESIAN_POINT('',(12.6616936341925,-3.67052988543557,10.));
#1064=CARTESIAN_POINT('Origin',(10.0373961823903,0.874886635259238,10.));
#1065=CARTESIAN_POINT('',(5.53452540843102,8.67408759567378,13.8753164113966));
#1066=CARTESIAN_POINT('',(10.24552090921,0.514404034096114,17.1739909735141));
#1067=CARTESIAN_POINT('',(5.39061793308878,8.92334265455549,11.0263180516507));
#1068=CARTESIAN_POINT('Origin',(20.5345859895988,8.98216536159371,10.3539714336139));
#1069=CARTESIAN_POINT('',(12.3769682358619,8.25491803103595,18.6664464589326));
#1070=CARTESIAN_POINT('Origin',(15.,15.,0.));
#1071=CARTESIAN_POINT('',(16.2916113008293,-1.57479594346663,0.));
#1072=CARTESIAN_POINT('',(34.937155459837,-1.57479594346663,0.));
#1073=CARTESIAN_POINT('',(15.6458056504146,-1.57479594346663,0.));
#1074=CARTESIAN_POINT('',(9.50961894323342,-5.49038105676658,0.));
#1075=CARTESIAN_POINT('',(35.4903810567666,9.50961894323342,0.));
#1076=CARTESIAN_POINT('',(9.50961894323342,-5.49038105676658,0.));
#1077=CARTESIAN_POINT('',(5.55111512312578E-16,7.45422249936385,0.));
#1078=CARTESIAN_POINT('',(0.,30.,0.));
#1079=CARTESIAN_POINT('',(-12.3313583780729,28.8127617365263,-1.11022302462516E-15));
#1080=CARTESIAN_POINT('',(-3.26741750342797,13.113555624841,-2.77555756156289E-16));
#1081=CARTESIAN_POINT('',(-11.5000451963377,30.,0.));
#1082=CARTESIAN_POINT('',(-10.2624221413125,31.7675088991323,-1.11022302462516E-15));
#1083=CARTESIAN_POINT('',(8.28891550976335,30.,0.));
#1084=CARTESIAN_POINT('',(30.,30.,0.));
#1085=CARTESIAN_POINT('',(19.8174194058241,36.6559848277443,0.));
#1086=CARTESIAN_POINT('',(8.56741940582412,30.1607942993611,0.));
#1087=CARTESIAN_POINT('',(21.6334271820888,33.5105670923137,0.));
#1088=CARTESIAN_POINT('',(20.4903810567666,35.4903810567666,0.));
#1089=CARTESIAN_POINT('',(39.7381507544993,28.7331208410213,0.));
#1090=CARTESIAN_POINT('',(25.0809386043012,32.600843149031,1.38777878078145E-16));
#1091=CARTESIAN_POINT('',(33.3547524471233,13.2086362012333,0.));
#1092=CARTESIAN_POINT('',(29.5260057047573,3.89708816218689,0.));
#1093=CARTESIAN_POINT('',(35.4903810567666,9.50961894323342,0.));
#1094=CARTESIAN_POINT('',(20.4903810567666,35.4903810567666,0.));
#1095=CARTESIAN_POINT('',(34.937155459837,9.19021399592354,0.));
#1096=CARTESIAN_POINT('',(35.4903810567666,9.50961894323342,0.));
#1097=CARTESIAN_POINT('',(34.937155459837,7.5,0.));
#1098=CARTESIAN_POINT('Origin',(30.,6.33974596215561,0.));
#1099=CARTESIAN_POINT('',(19.6872348759263,0.385668241682263,7.31655194539479));
#1100=CARTESIAN_POINT('',(10.7080785709435,-4.79845006809529,3.80212953439057));
#1101=CARTESIAN_POINT('Origin',(16.2916113008293,1.01339450755858,9.65925826289068));
#1102=CARTESIAN_POINT('',(33.1738856527524,1.10469598084459,10.));
#1103=CARTESIAN_POINT('',(33.777959736579,0.18673571021796,6.57412563069172));
#1104=CARTESIAN_POINT('',(33.1738856527524,0.969299282045972,9.49469264090644));
#1105=CARTESIAN_POINT('Origin',(34.862148974674,0.,0.425382915658179));
#1106=CARTESIAN_POINT('',(34.7225628438324,9.06631889130719,1.21701520177104));
#1107=CARTESIAN_POINT('',(33.1738856527524,1.5849364905389,10.));
#1108=CARTESIAN_POINT('Origin',(33.1738856527524,8.17218969814928,10.));
#1109=CARTESIAN_POINT('',(33.1738856527524,8.17218969814928,10.));
#1110=CARTESIAN_POINT('Origin',(33.1738856527524,-1.57479594346663,10.));
#1111=CARTESIAN_POINT('Origin',(10.5788608899747,30.6961133388274,-1.16258192480235));
#1112=CARTESIAN_POINT('',(-1.23274730469262,29.9266288374352,10.0733711625648));
#1113=CARTESIAN_POINT('',(3.73958230241179,33.9355572661968,12.1871452781538));
#1114=CARTESIAN_POINT('',(-2.18790914078438,29.1565319731193,9.66732479700517));
#1115=CARTESIAN_POINT('',(7.1581565431569,34.7316130454606,10.));
#1116=CARTESIAN_POINT('',(18.2152367806059,37.3063860370476,2.92586934539325));
#1117=CARTESIAN_POINT('',(17.4858811150491,40.6943276071589,10.));
#1118=CARTESIAN_POINT('',(12.7310716434324,37.9491370787756,10.));
#1119=CARTESIAN_POINT('',(20.2961266556369,35.826839549117,-2.05318202024332));
#1120=CARTESIAN_POINT('',(-1.03723765333663,30.,10.));
#1121=CARTESIAN_POINT('',(14.1611975923695,30.,-6.29657478266663));
#1122=CARTESIAN_POINT('',(7.12074580589752,33.0615405758072,6.93845942419278));
#1123=CARTESIAN_POINT('Origin',(23.6602540378444,37.8664632964904,1.38706972192411));
#1124=CARTESIAN_POINT('',(8.44458711974954,31.7101007166283,18.3015368960704));
#1125=CARTESIAN_POINT('',(0.303049609252048,35.5610293935826,7.72119731220844));
#1126=CARTESIAN_POINT('',(25.229462499681,31.7101007166284,18.3015368960704));
#1127=CARTESIAN_POINT('',(23.6602540378444,31.7101007166283,18.3015368960704));
#1128=CARTESIAN_POINT('',(22.1318292684891,32.6473093560701,15.7265773218865));
#1129=CARTESIAN_POINT('',(17.4845013631539,34.0533879774319,11.863408059717));
#1130=CARTESIAN_POINT('',(20.9284559723465,34.7316130454606,10.));
#1131=CARTESIAN_POINT('',(19.8966571563128,36.5187410180205,5.08990624971593));
#1132=CARTESIAN_POINT('',(20.4903810567666,34.7316130454606,10.));
#1133=CARTESIAN_POINT('Origin',(30.,6.33974596215561,0.));
#1134=CARTESIAN_POINT('',(35.4903810567666,9.50961894323342,10.));
#1135=CARTESIAN_POINT('',(35.4903810567666,9.50961894323342,10.));
#1136=CARTESIAN_POINT('',(35.4903810567666,9.50961894323342,0.));
#1137=CARTESIAN_POINT('Origin',(-1.52872506320456E-15,10.9807621135332,
-6.93889390390723E-17));
#1138=CARTESIAN_POINT('Origin',(-6.99421838857093,19.6221401684319,0.15192246987792));
#1139=CARTESIAN_POINT('',(-6.58621501437718,22.3884211480074,10.));
#1140=CARTESIAN_POINT('',(-1.11022302462516E-15,10.9807621135332,10.));
#1141=CARTESIAN_POINT('',(9.50961894323342,-5.49038105676658,10.));
#1142=CARTESIAN_POINT('',(-10.2973947003225,26.5383406153552,3.54031840285022));
#1143=CARTESIAN_POINT('',(5.55111512312578E-16,8.34602128723978,2.52882112621892));
#1144=CARTESIAN_POINT('Origin',(-9.17123706500102,30.0820233654664,2.21737825014779));
#1145=CARTESIAN_POINT('',(-1.25653012453436,30.,10.));
#1146=CARTESIAN_POINT('',(-1.54604057259,30.8931538938547,9.10684610614527));
#1147=CARTESIAN_POINT('',(0.274929097751078,30.,11.4950524420089));
#1148=CARTESIAN_POINT('',(-5.76277376023382,23.5644171337815,10.));
#1149=CARTESIAN_POINT('',(5.25783076711813,32.3338323648442,14.7641789392239));
#1150=CARTESIAN_POINT('Origin',(23.2386786549266,2.43609526349993,17.7926139901751));
#1151=CARTESIAN_POINT('',(23.0070187842738,31.1314366484795,21.5833039054291));
#1152=CARTESIAN_POINT('',(27.3252345169334,30.9588266246936,22.56222399521));
#1153=CARTESIAN_POINT('',(23.7294803057843,31.1025580309826,21.7470826838147));
#1154=CARTESIAN_POINT('',(31.0195233466155,17.2533716506261,21.5833039054291));
#1155=CARTESIAN_POINT('',(29.5753175473055,19.7548094716167,21.5833039054291));
#1156=CARTESIAN_POINT('',(35.2910547918445,28.7843658037558,24.1193765124799));
#1157=CARTESIAN_POINT('',(24.4330407642936,-0.526830396411211,17.6728099132801));
#1158=CARTESIAN_POINT('',(27.827767580073,30.821648227578,22.6604587779785));
#1159=CARTESIAN_POINT('Origin',(23.6602540378444,30.8682408883347,23.075961234939));
#1160=CARTESIAN_POINT('',(22.043605832551,32.8001168295333,12.1197483318624));
#1161=CARTESIAN_POINT('',(22.9854654413318,32.5145092297861,13.7395095198532));
#1162=CARTESIAN_POINT('Origin',(30.1631567528684,31.2584167547713,0.0287689376154872));
#1163=CARTESIAN_POINT('',(21.6441537118818,33.4919881977233,0.338464875625873));
#1164=CARTESIAN_POINT('',(39.350825255579,28.7375840864572,2.10070788213131));
#1165=CARTESIAN_POINT('Origin',(23.6602540378444,30.,0.));
#1166=CARTESIAN_POINT('',(20.4903810567666,35.4903810567666,10.));
#1167=CARTESIAN_POINT('Origin',(15.,15.,5.));
#1168=CARTESIAN_POINT('',(13.0316349035423,16.35,5.));
#1169=CARTESIAN_POINT('',(18.7316349035423,16.35,5.));
#1170=CARTESIAN_POINT('',(13.575,16.35,5.));
#1171=CARTESIAN_POINT('',(13.0316349035423,13.65,5.));
#1172=CARTESIAN_POINT('',(13.0316349035423,14.325,5.));
#1173=CARTESIAN_POINT('',(18.7316349035423,13.65,5.));
#1174=CARTESIAN_POINT('',(16.425,13.65,5.));
#1175=CARTESIAN_POINT('',(18.7316349035423,15.675,5.));
#1176=CARTESIAN_POINT('Origin',(17.85,13.65,0.));
#1177=CARTESIAN_POINT('',(12.2359380153801,13.65,0.487378704239078));
#1178=CARTESIAN_POINT('',(17.85,13.65,0.));
#1179=CARTESIAN_POINT('Origin',(12.15,13.65,0.));
#1180=CARTESIAN_POINT('',(12.15,16.35,0.));
#1181=CARTESIAN_POINT('Origin',(0.,10.9807621135332,0.));
#1182=CARTESIAN_POINT('',(0.,30.,10.));
#1183=CARTESIAN_POINT('Origin',(10.3864317303453,-2.74519052838329,17.2726577926883));
#1184=CARTESIAN_POINT('',(2.22044604925031E-15,7.28765877365274,10.));
#1185=CARTESIAN_POINT('Origin',(24.5096189432334,3.1698729810778,10.));
#1186=CARTESIAN_POINT('',(20.4903810567666,35.4903810567666,10.));
#1187=CARTESIAN_POINT('Origin',(27.6614462781641,-0.466308120420788,0.380058692290028));
#1188=CARTESIAN_POINT('',(33.2188915593007,13.4439541617034,1.25569128532106));
#1189=CARTESIAN_POINT('Origin',(-2.74519052838329,17.3205080756888,10.));
#1190=CARTESIAN_POINT('Origin',(30.,30.,0.));
#1191=CARTESIAN_POINT('',(30.,30.,10.));
#1192=CARTESIAN_POINT('Origin',(5.49038105676658,27.7585613195799,12.2414386804201));
#1193=CARTESIAN_POINT('Origin',(23.6602540378444,30.,0.));
#1194=CARTESIAN_POINT('Origin',(26.8301270189222,24.5096189432334,10.));
#1195=CARTESIAN_POINT('Origin',(17.85,16.35,0.));
#1196=CARTESIAN_POINT('',(17.7640619846199,16.35,-0.487378704239078));
#1197=CARTESIAN_POINT('Origin',(12.15,16.35,0.));
#1198=CARTESIAN_POINT('',(0.,0.,0.));
#1199=UNCERTAINTY_MEASURE_WITH_UNIT(LENGTH_MEASURE(0.01),#1205,
'DISTANCE_ACCURACY_VALUE',
'Maximum model space distance between geometric entities at asserted c
onnectivities');
#1200=UNCERTAINTY_MEASURE_WITH_UNIT(LENGTH_MEASURE(0.01),#1205,
'DISTANCE_ACCURACY_VALUE',
'Maximum model space distance between geometric entities at asserted c
onnectivities');
#1201=UNCERTAINTY_MEASURE_WITH_UNIT(LENGTH_MEASURE(0.01),#1205,
'DISTANCE_ACCURACY_VALUE',
'Maximum model space distance between geometric entities at asserted c
onnectivities');
#1202=(
GEOMETRIC_REPRESENTATION_CONTEXT(3)
GLOBAL_UNCERTAINTY_ASSIGNED_CONTEXT((#1199))
GLOBAL_UNIT_ASSIGNED_CONTEXT((#1205,#1207,#1208))
REPRESENTATION_CONTEXT('','3D')
);
#1203=(
GEOMETRIC_REPRESENTATION_CONTEXT(3)
GLOBAL_UNCERTAINTY_ASSIGNED_CONTEXT((#1200))
GLOBAL_UNIT_ASSIGNED_CONTEXT((#1205,#1207,#1208))
REPRESENTATION_CONTEXT('','3D')
);
#1204=(
GEOMETRIC_REPRESENTATION_CONTEXT(3)
GLOBAL_UNCERTAINTY_ASSIGNED_CONTEXT((#1201))
GLOBAL_UNIT_ASSIGNED_CONTEXT((#1205,#1207,#1208))
REPRESENTATION_CONTEXT('','3D')
);
#1205=(
LENGTH_UNIT()
NAMED_UNIT(*)
SI_UNIT(.MILLI.,.METRE.)
);
#1206=(
LENGTH_UNIT()
NAMED_UNIT(*)
SI_UNIT($,.METRE.)
);
#1207=(
NAMED_UNIT(*)
PLANE_ANGLE_UNIT()
SI_UNIT($,.RADIAN.)
);
#1208=(
NAMED_UNIT(*)
SI_UNIT($,.STERADIAN.)
SOLID_ANGLE_UNIT()
);
#1209=SHAPE_DEFINITION_REPRESENTATION(#1211,#1214);
#1210=SHAPE_DEFINITION_REPRESENTATION(#1212,#1215);
#1211=PRODUCT_DEFINITION_SHAPE('',$,#1217);
#1212=PRODUCT_DEFINITION_SHAPE('',$,#1218);
#1213=PRODUCT_DEFINITION_SHAPE($,$,#14);
#1214=SHAPE_REPRESENTATION('',(#763,#804),#1202);
#1215=SHAPE_REPRESENTATION('',(#764),#1203);
#1216=PRODUCT_DEFINITION_CONTEXT('part definition',#1224,'design');
#1217=PRODUCT_DEFINITION('2025-06-13-16-03-50-893','rock',#1219,#1216);
#1218=PRODUCT_DEFINITION('2025-06-23-09-09-15-368','Component1',#1220,#1216);
#1219=PRODUCT_DEFINITION_FORMATION('',$,#1226);
#1220=PRODUCT_DEFINITION_FORMATION('',$,#1227);
#1221=PRODUCT_RELATED_PRODUCT_CATEGORY('rock','rock',(#1226));
#1222=PRODUCT_RELATED_PRODUCT_CATEGORY('Component1','Component1',(#1227));
#1223=APPLICATION_PROTOCOL_DEFINITION('international standard',
'automotive_design',2009,#1224);
#1224=APPLICATION_CONTEXT(
'Core Data for Automotive Mechanical Design Process');
#1225=PRODUCT_CONTEXT('part definition',#1224,'mechanical');
#1226=PRODUCT('2025-06-13-16-03-50-893','rock',$,(#1225));
#1227=PRODUCT('2025-06-23-09-09-15-368','Component1',$,(#1225));
#1228=PRESENTATION_STYLE_ASSIGNMENT((#1229));
#1229=SURFACE_STYLE_USAGE(.BOTH.,#1230);
#1230=SURFACE_SIDE_STYLE('',(#1231));
#1231=SURFACE_STYLE_FILL_AREA(#1232);
#1232=FILL_AREA_STYLE('Steel - Satin',(#1233));
#1233=FILL_AREA_STYLE_COLOUR('Steel - Satin',#1234);
#1234=COLOUR_RGB('Steel - Satin',0.627450980392157,0.627450980392157,0.627450980392157);
ENDSEC;
END-ISO-10303-21;
